<svg width="25" height="19" viewBox="0 0 25 19" fill="none" xmlns="http://www.w3.org/2000/svg">
<rect width="25" height="19" rx="9.5" fill="#333333"/>
<path d="M12.1293 14.1918C11.3963 14.1889 10.7656 14.0085 10.2372 13.6506C9.71165 13.2926 9.30682 12.7741 9.02273 12.0952C8.74148 11.4162 8.60227 10.5994 8.60511 9.64489C8.60511 8.69318 8.74574 7.8821 9.02699 7.21165C9.31108 6.54119 9.71591 6.03125 10.2415 5.68182C10.7699 5.32955 11.3991 5.15341 12.1293 5.15341C12.8594 5.15341 13.4872 5.32955 14.0128 5.68182C14.5412 6.03409 14.9474 6.54545 15.2315 7.21591C15.5156 7.88352 15.6563 8.69318 15.6534 9.64489C15.6534 10.6023 15.5114 11.4205 15.2273 12.0994C14.946 12.7784 14.5426 13.2969 14.017 13.6548C13.4915 14.0128 12.8622 14.1918 12.1293 14.1918ZM12.1293 12.6619C12.6293 12.6619 13.0284 12.4105 13.3267 11.9077C13.625 11.4048 13.7727 10.6506 13.7699 9.64489C13.7699 8.98295 13.7017 8.43182 13.5653 7.99148C13.4318 7.55114 13.2415 7.22017 12.9943 6.99858C12.75 6.77699 12.4616 6.66619 12.1293 6.66619C11.6321 6.66619 11.2344 6.91477 10.9361 7.41193C10.6378 7.90909 10.4872 8.65341 10.4844 9.64489C10.4844 10.3153 10.5511 10.875 10.6847 11.3239C10.821 11.7699 11.0128 12.1051 11.2599 12.3295C11.5071 12.5511 11.7969 12.6619 12.1293 12.6619Z" fill="#D9D9D9"/>
</svg>
